<?xml version="1.0" encoding="UTF-8" standalone="no"?>
<!-- Created with Inkscape (http://www.inkscape.org/) -->

<svg
   xmlns:dc="http://purl.org/dc/elements/1.1/"
   xmlns:cc="http://creativecommons.org/ns#"
   xmlns:rdf="http://www.w3.org/1999/02/22-rdf-syntax-ns#"
   xmlns:svg="http://www.w3.org/2000/svg"
   xmlns="http://www.w3.org/2000/svg"
   xmlns:xlink="http://www.w3.org/1999/xlink"
   xmlns:sodipodi="http://sodipodi.sourceforge.net/DTD/sodipodi-0.dtd"
   xmlns:inkscape="http://www.inkscape.org/namespaces/inkscape"
   width="64"
   height="64"
   id="svg2"
   version="1.1"
   inkscape:version="0.47 r22583"
   sodipodi:docname="no_lyrics2.svg">
  <defs
     id="defs4">
    <linearGradient
       inkscape:collect="always"
       id="linearGradient6265">
      <stop
         style="stop-color:#ffffff;stop-opacity:1;"
         offset="0"
         id="stop6267" />
      <stop
         style="stop-color:#ffffff;stop-opacity:0;"
         offset="1"
         id="stop6269" />
    </linearGradient>
    <linearGradient
       inkscape:collect="always"
       id="linearGradient6257">
      <stop
         style="stop-color:#ffffff;stop-opacity:1;"
         offset="0"
         id="stop6259" />
      <stop
         style="stop-color:#ffffff;stop-opacity:0;"
         offset="1"
         id="stop6261" />
    </linearGradient>
    <linearGradient
       inkscape:collect="always"
       id="linearGradient6247">
      <stop
         style="stop-color:#ffffff;stop-opacity:1;"
         offset="0"
         id="stop6249" />
      <stop
         style="stop-color:#ffffff;stop-opacity:0;"
         offset="1"
         id="stop6251" />
    </linearGradient>
    <linearGradient
       inkscape:collect="always"
       id="linearGradient6218">
      <stop
         style="stop-color:#ffffff;stop-opacity:1;"
         offset="0"
         id="stop6220" />
      <stop
         style="stop-color:#ffffff;stop-opacity:0;"
         offset="1"
         id="stop6222" />
    </linearGradient>
    <inkscape:path-effect
       effect="skeletal"
       id="path-effect2908"
       is_visible="true"
       pattern="M 0,5 C 0,2.24 2.24,0 5,0 7.76,0 10,2.24 10,5 10,7.76 7.76,10 5,10 2.24,10 0,7.76 0,5 z"
       copytype="single_stretched"
       prop_scale="1"
       scale_y_rel="false"
       spacing="0"
       normal_offset="0"
       tang_offset="0"
       prop_units="false"
       vertical_pattern="false"
       fuse_tolerance="0" />
    <inkscape:path-effect
       effect="skeletal"
       id="path-effect2904"
       is_visible="true"
       pattern="M 0,5 C 0,2.24 2.24,0 5,0 7.76,0 10,2.24 10,5 10,7.76 7.76,10 5,10 2.24,10 0,7.76 0,5 z"
       copytype="single_stretched"
       prop_scale="1"
       scale_y_rel="false"
       spacing="0"
       normal_offset="0"
       tang_offset="0"
       prop_units="false"
       vertical_pattern="false"
       fuse_tolerance="0" />
    <inkscape:path-effect
       effect="skeletal"
       id="path-effect2900"
       is_visible="true"
       pattern="M 0,5 10,10 10,0 z"
       copytype="single_stretched"
       prop_scale="1"
       scale_y_rel="false"
       spacing="0"
       normal_offset="0"
       tang_offset="0"
       prop_units="false"
       vertical_pattern="false"
       fuse_tolerance="0" />
    <inkscape:path-effect
       effect="skeletal"
       id="path-effect2896"
       is_visible="true"
       pattern="M 0,0 0,10 10,5 z"
       copytype="single_stretched"
       prop_scale="1"
       scale_y_rel="false"
       spacing="0"
       normal_offset="0"
       tang_offset="0"
       prop_units="false"
       vertical_pattern="false"
       fuse_tolerance="0" />
    <inkscape:perspective
       sodipodi:type="inkscape:persp3d"
       inkscape:vp_x="0 : 526.18109 : 1"
       inkscape:vp_y="0 : 1000 : 0"
       inkscape:vp_z="744.09448 : 526.18109 : 1"
       inkscape:persp3d-origin="372.04724 : 350.78739 : 1"
       id="perspective10" />
    <inkscape:perspective
       id="perspective3691"
       inkscape:persp3d-origin="0.5 : 0.33333333 : 1"
       inkscape:vp_z="1 : 0.5 : 1"
       inkscape:vp_y="0 : 1000 : 0"
       inkscape:vp_x="0 : 0.5 : 1"
       sodipodi:type="inkscape:persp3d" />
    <linearGradient
       inkscape:collect="always"
       xlink:href="#linearGradient6218"
       id="linearGradient6224"
       x1="16.469313"
       y1="1015.1214"
       x2="42.86468"
       y2="1015.1214"
       gradientUnits="userSpaceOnUse" />
    <linearGradient
       inkscape:collect="always"
       xlink:href="#linearGradient6247"
       id="linearGradient6255"
       x1="9.0378513"
       y1="1024.2228"
       x2="27.255665"
       y2="1024.2228"
       gradientUnits="userSpaceOnUse" />
    <linearGradient
       inkscape:collect="always"
       xlink:href="#linearGradient6257"
       id="linearGradient6263"
       x1="47.277026"
       y1="1015.1214"
       x2="53.442253"
       y2="1015.1214"
       gradientUnits="userSpaceOnUse" />
    <linearGradient
       inkscape:collect="always"
       xlink:href="#linearGradient6265"
       id="linearGradient6271"
       x1="44.817039"
       y1="1015.1214"
       x2="49.137275"
       y2="1015.1214"
       gradientUnits="userSpaceOnUse" />
  </defs>
  <sodipodi:namedview
     id="base"
     pagecolor="#ffffff"
     bordercolor="#666666"
     borderopacity="1.0"
     inkscape:pageopacity="0.0"
     inkscape:pageshadow="2"
     inkscape:zoom="5.6568542"
     inkscape:cx="32.930951"
     inkscape:cy="29.412331"
     inkscape:document-units="px"
     inkscape:current-layer="layer1"
     showgrid="false"
     inkscape:window-width="1280"
     inkscape:window-height="739"
     inkscape:window-x="0"
     inkscape:window-y="0"
     inkscape:window-maximized="1"
     inkscape:snap-grids="false"
     inkscape:snap-to-guides="false">
    <inkscape:grid
       type="xygrid"
       id="grid2833"
       empspacing="5"
       visible="true"
       enabled="true"
       snapvisiblegridlinesonly="true" />
  </sodipodi:namedview>
  <metadata
     id="metadata7">
    <rdf:RDF>
      <cc:Work
         rdf:about="">
        <dc:format>image/svg+xml</dc:format>
        <dc:type
           rdf:resource="http://purl.org/dc/dcmitype/StillImage" />
        <dc:title></dc:title>
      </cc:Work>
    </rdf:RDF>
  </metadata>
  <g
     inkscape:label="Vrstva 1"
     inkscape:groupmode="layer"
     id="layer1"
     transform="translate(0,-988.3622)">
    <rect
       style="fill:#ffffff;fill-opacity:0;stroke:none;opacity:0"
       id="rect3660"
       width="52.889725"
       height="54.793209"
       x="3.0048852"
       y="994.57391"
       rx="5.2889729" />
    <path
       style="stroke:#ffffff;stroke-opacity:1;fill-opacity:1;fill:url(#linearGradient6224)"
       d="m 42.36468,997.06451 -12.299936,8.71709 -13.095431,0 0,18.6795 13.095431,0 12.299936,8.7171 0,-36.11369 z"
       id="rect2826"
       sodipodi:nodetypes="ccccccc" />
    <path
       style="fill:url(#linearGradient6263);stroke:#ffffff;stroke-width:2.47524642999999989;stroke-linecap:round;stroke-linejoin:miter;stroke-miterlimit:4;stroke-opacity:1;stroke-dasharray:none;fill-opacity:1"
       d="m 48.514649,999.55511 c 4.919975,11.20769 4.919975,19.92479 0,31.13249"
       id="path2892"
       sodipodi:nodetypes="cc" />
    <path
       style="fill:url(#linearGradient6271);stroke:#ffffff;stroke-width:2.47524642999999989;stroke-linecap:round;stroke-linejoin:miter;stroke-miterlimit:4;stroke-opacity:1;stroke-dasharray:none;fill-opacity:1"
       d="m 46.054662,1005.7816 c 2.459987,6.2265 2.459987,12.453 0,18.6795"
       id="path2892-0"
       sodipodi:nodetypes="cc" />
    <text
       xml:space="preserve"
       style="font-size:49.50492859000000578px;font-style:normal;font-variant:normal;font-weight:bold;font-stretch:normal;fill:url(#linearGradient6255);fill-opacity:1;stroke:none;stroke-width:0.86599999999999999;stroke-miterlimit:4;stroke-opacity:0.64976959999999995;stroke-dasharray:none;font-family:URW Palladio L;-inkscape-font-specification:URW Palladio L Medium"
       x="6.9091396"
       y="1040.9307"
       id="text3608"
       transform="scale(0.99383524,1.006203)"><tspan
         sodipodi:role="line"
         id="tspan3610"
         x="6.9091396"
         y="1040.9307"
         style="stroke-width:0.86599999999999999;fill:url(#linearGradient6255);fill-opacity:1;stroke:none;stroke-opacity:0.64976959999999995;stroke-miterlimit:4;stroke-dasharray:none">?</tspan></text>
    <path
       style="font-size:medium;font-style:normal;font-variant:normal;font-weight:normal;font-stretch:normal;text-indent:0;text-align:start;text-decoration:none;line-height:normal;letter-spacing:normal;word-spacing:normal;text-transform:none;direction:ltr;block-progression:tb;writing-mode:lr-tb;text-anchor:start;color:#000000;fill:#ffffff;fill-opacity:1;stroke:#ffffff;stroke-width:0.5227415;stroke-opacity:1;marker:none;visibility:visible;display:inline;overflow:visible;enable-background:accumulate;font-family:Bitstream Charter;-inkscape-font-specification:Bitstream Charter"
       d="m 29.441775,1007.9285 0,0.3134 0,13.7908 0,0.3134 0.435923,0 0,-0.3134 0,-13.7908 0,-0.3134 -0.435923,0 z"
       id="path3633"
       sodipodi:nodetypes="ccccccccc" />
    <path
       style="font-size:medium;font-style:normal;font-variant:normal;font-weight:normal;font-stretch:normal;text-indent:0;text-align:start;text-decoration:none;line-height:normal;letter-spacing:normal;word-spacing:normal;text-transform:none;direction:ltr;block-progression:tb;writing-mode:lr-tb;text-anchor:start;color:#000000;fill:#ffffff;fill-opacity:1;stroke:none;stroke-width:0.80000001;marker:none;visibility:visible;display:inline;overflow:visible;enable-background:accumulate;font-family:Bitstream Charter;-inkscape-font-specification:Bitstream Charter"
       d="m 16.96747,1012.1086 5.94e-4,1.086 c 5.752341,-0.1614 8.325162,2.3509 9.40043,4.4127 1.075268,2.0615 0.702269,5.1877 0.0029,6.891 l 1.037807,0 c 0.626879,-2.202 0.931756,-5.182 -0.305076,-7.5533 -1.236832,-2.3715 -4.159838,-4.7991 -10.136675,-4.8364 l 3.1e-5,0 -1.1e-5,0 z"
       id="path3688"
       sodipodi:nodetypes="ccsccsccc" />
    <path
       style="font-size:medium;font-style:normal;font-variant:normal;font-weight:normal;font-stretch:normal;text-indent:0;text-align:start;text-decoration:none;line-height:normal;letter-spacing:normal;word-spacing:normal;text-transform:none;direction:ltr;block-progression:tb;writing-mode:lr-tb;text-anchor:start;color:#000000;fill:#ffffff;fill-opacity:1;stroke:#ffffff;stroke-width:0.80000000999999998;marker:none;visibility:visible;display:inline;overflow:visible;enable-background:accumulate;font-family:Bitstream Charter;-inkscape-font-specification:Bitstream Charter;stroke-opacity:1"
       d="m 16.947938,1019.2022 c 1.799371,0.267 2.190737,1.6746 2.346507,2.4687 0.177887,0.9068 -0.0043,1.9877 -0.404803,2.7922 0.411656,0.013 0.740822,0 1.048655,0 0.314532,-0.822 0.423751,-1.8611 0.317084,-2.9921 -0.112311,-1.1909 -0.960671,-2.7352 -3.294673,-3.4022 0.01033,0.353 -0.01095,0.9043 -0.01277,1.1334 z"
       id="path3690"
       sodipodi:nodetypes="csccscc" />
    <path
       style="opacity:0;fill:#ffffff;fill-opacity:0;stroke:#000000;stroke-width:0.17677669;stroke-opacity:1"
       d="m 15.267167,49.018332 c -0.546911,-0.834693 -0.870504,-2.197612 -0.796755,-3.355805 0.09747,-1.530803 0.808192,-2.912044 2.9413,-5.716256 1.699494,-2.234179 2.331698,-3.134196 2.331698,-3.319451 0,-0.05204 -0.715946,-0.09461 -1.590991,-0.09461 l -1.59099,0 0,-3.452693 c 0,-2.933483 -0.0406,-3.468275 -0.270003,-3.556305 -0.430529,-0.165208 -2.930071,0.269505 -3.515483,0.611405 -0.414815,0.242264 -0.712171,0.726215 -1.335105,2.172894 L 10.63941,34.16872 10.020691,34.010802 c -0.3402948,-0.08686 -0.6777893,-0.214741 -0.7499875,-0.284188 -0.072198,-0.06945 0.1492675,-1.077479 0.4921459,-2.240065 0.3428786,-1.162588 0.6725066,-2.577795 0.7325076,-3.144907 0.102609,-0.969839 0.152096,-1.058259 0.832776,-1.487954 1.301526,-0.821617 2.908239,-1.485509 4.081539,-1.686486 l 1.151757,-0.197288 0,-3.94157 0,-3.94157 6.647897,0 6.647897,0 6.367472,-4.514987 c 3.502109,-2.483242 6.397584,-4.4848737 6.434389,-4.4480693 0.03681,0.036804 0.04667,8.4599083 0.02191,18.7180083 l -0.045,18.65109 -6.275573,-4.469314 -6.275573,-4.469313 -1.994787,-0.01099 -1.994789,-0.01099 -1.072699,1.146719 c -0.589985,0.630695 -2.317464,2.216308 -3.838843,3.52358 -2.893496,2.486292 -3.438041,3.063508 -4.083258,4.328238 -0.304815,0.597486 -0.376107,0.987642 -0.32201,1.762248 0.03821,0.547177 0.133015,1.13451 0.210672,1.305188 0.112325,0.246876 0.01191,0.364341 -0.491131,0.574524 -0.831604,0.347467 -0.908317,0.337845 -1.230834,-0.154377 l 0,0 z m 4.929078,-13.45429 c 0.06342,-0.33804 0.08691,-1.238788 0.0522,-2.001664 -0.05236,-1.151021 -0.145148,-1.511029 -0.545276,-2.115651 -0.45775,-0.69169 -1.522304,-1.454987 -2.390444,-1.713974 -0.358985,-0.107093 -0.397748,-0.05874 -0.397748,0.496205 0,0.552588 0.07949,0.653342 0.78487,0.994809 1.103909,0.534394 1.588034,1.548532 1.462368,3.063349 -0.05001,0.602827 -0.147851,1.275034 -0.217427,1.493795 -0.115084,0.361845 -0.06952,0.397748 0.504824,0.397748 0.580752,0 0.640562,-0.04923 0.746628,-0.614617 z m 7.468737,-0.136684 c 0.333109,-1.350091 0.431777,-3.524784 0.213992,-4.716498 -0.736097,-4.027885 -4.141368,-6.485719 -9.68236,-6.988469 l -1.281632,-0.116286 0,0.61434 0,0.61434 1.37002,0.117631 c 3.025164,0.259742 5.13719,1.091485 6.666293,2.62527 1.920028,1.925908 2.465098,4.547929 1.583348,7.616592 -0.137773,0.479477 -0.250496,0.897112 -0.250496,0.928078 0,0.03097 0.26898,0.0563 0.597734,0.0563 0.556284,0 0.610585,-0.05209 0.783101,-0.751301 l 0,0 z m 2.508253,-8.617864 0,-7.601398 -0.53033,0 -0.530331,0 0,7.601398 0,7.601398 0.530331,0 0.53033,0 0,-7.601398 z"
       id="path4724"
       transform="translate(0,988.3622)" />
    <path
       style="opacity:0;fill:#ffffff;fill-opacity:0;stroke:#000000;stroke-width:0.17677669;stroke-opacity:1"
       d="m 15.267167,49.018332 c -0.546911,-0.834693 -0.870504,-2.197612 -0.796755,-3.355805 0.09747,-1.530803 0.808192,-2.912044 2.9413,-5.716256 1.699494,-2.234179 2.331698,-3.134196 2.331698,-3.319451 0,-0.05204 -0.715946,-0.09461 -1.590991,-0.09461 l -1.59099,0 0,-3.452693 c 0,-2.933483 -0.0406,-3.468275 -0.270003,-3.556305 -0.430529,-0.165208 -2.930071,0.269505 -3.515483,0.611405 -0.414815,0.242264 -0.712171,0.726215 -1.335105,2.172894 L 10.63941,34.16872 10.020691,34.010802 c -0.3402948,-0.08686 -0.6777893,-0.214741 -0.7499875,-0.284188 -0.072198,-0.06945 0.1492675,-1.077479 0.4921459,-2.240065 0.3428786,-1.162588 0.6725066,-2.577795 0.7325076,-3.144907 0.102609,-0.969839 0.152096,-1.058259 0.832776,-1.487954 1.301526,-0.821617 2.908239,-1.485509 4.081539,-1.686486 l 1.151757,-0.197288 0,-3.94157 0,-3.94157 6.647897,0 6.647897,0 6.367472,-4.514987 c 3.502109,-2.483242 6.397584,-4.4848737 6.434389,-4.4480693 0.03681,0.036804 0.04667,8.4599083 0.02191,18.7180083 l -0.045,18.65109 -6.275573,-4.469314 -6.275573,-4.469313 -1.994787,-0.01099 -1.994789,-0.01099 -1.072699,1.146719 c -0.589985,0.630695 -2.317464,2.216308 -3.838843,3.52358 -2.893496,2.486292 -3.438041,3.063508 -4.083258,4.328238 -0.304815,0.597486 -0.376107,0.987642 -0.32201,1.762248 0.03821,0.547177 0.133015,1.13451 0.210672,1.305188 0.112325,0.246876 0.01191,0.364341 -0.491131,0.574524 -0.831604,0.347467 -0.908317,0.337845 -1.230834,-0.154377 l 0,0 z m 4.929078,-13.45429 c 0.06342,-0.33804 0.08691,-1.238788 0.0522,-2.001664 -0.05236,-1.151021 -0.145148,-1.511029 -0.545276,-2.115651 -0.45775,-0.69169 -1.522304,-1.454987 -2.390444,-1.713974 -0.358985,-0.107093 -0.397748,-0.05874 -0.397748,0.496205 0,0.552588 0.07949,0.653342 0.78487,0.994809 1.103909,0.534394 1.588034,1.548532 1.462368,3.063349 -0.05001,0.602827 -0.147851,1.275034 -0.217427,1.493795 -0.115084,0.361845 -0.06952,0.397748 0.504824,0.397748 0.580752,0 0.640562,-0.04923 0.746628,-0.614617 z m 7.468737,-0.136684 c 0.333109,-1.350091 0.431777,-3.524784 0.213992,-4.716498 -0.736097,-4.027885 -4.141368,-6.485719 -9.68236,-6.988469 l -1.281632,-0.116286 0,0.61434 0,0.61434 1.37002,0.117631 c 3.025164,0.259742 5.13719,1.091485 6.666293,2.62527 1.920028,1.925908 2.465098,4.547929 1.583348,7.616592 -0.137773,0.479477 -0.250496,0.897112 -0.250496,0.928078 0,0.03097 0.26898,0.0563 0.597734,0.0563 0.556284,0 0.610585,-0.05209 0.783101,-0.751301 l 0,0 z m 2.508253,-8.617864 0,-7.601398 -0.53033,0 -0.530331,0 0,7.601398 0,7.601398 0.530331,0 0.53033,0 0,-7.601398 z"
       id="path4726"
       transform="translate(0,988.3622)" />
    <path
       style="opacity:0;fill:#ffffff;fill-opacity:0;stroke:#000000;stroke-width:0.17677669;stroke-opacity:1"
       d="m 15.178308,59.312013 c -0.323194,-0.09311 -0.933739,-0.515396 -1.356766,-0.938423 -1.171903,-1.171903 -1.438905,-2.535287 -0.780792,-3.986931 0.593362,-1.308819 1.539183,-2.075355 2.931362,-2.375709 1.878799,-0.405339 4.117086,1.655083 4.117086,3.789922 0,2.503046 -2.415454,4.230025 -4.91089,3.511141 l 0,0 z"
       id="path4728"
       transform="translate(0,988.3622)" />
    <path
       style="opacity:0;fill:#ffffff;fill-opacity:0;stroke:#000000;stroke-width:0.17677668999999999;stroke-opacity:1"
       d="m 15.178308,59.312013 c -0.323194,-0.09311 -0.933739,-0.515396 -1.356766,-0.938423 -1.171903,-1.171903 -1.438905,-2.535287 -0.780792,-3.986931 0.593362,-1.308819 1.539183,-2.075355 2.931362,-2.375709 1.878799,-0.405339 4.117086,1.655083 4.117086,3.789922 0,2.503046 -2.415454,4.230025 -4.91089,3.511141 l 0,0 z"
       id="path4730"
       transform="translate(0,988.3622)" />
    <path
       style="opacity:0;fill:#ffffff;fill-opacity:0;stroke:#000000;stroke-width:0.17677669;stroke-opacity:1"
       d="m 15.267167,49.018332 c -0.546911,-0.834693 -0.870504,-2.197612 -0.796755,-3.355805 0.09747,-1.530803 0.808192,-2.912044 2.9413,-5.716256 1.699494,-2.234179 2.331698,-3.134196 2.331698,-3.319451 0,-0.05204 -0.715946,-0.09461 -1.590991,-0.09461 l -1.59099,0 0,-3.452693 c 0,-2.933483 -0.0406,-3.468275 -0.270003,-3.556305 -0.430529,-0.165208 -2.930071,0.269505 -3.515483,0.611405 -0.414815,0.242264 -0.712171,0.726215 -1.335105,2.172894 L 10.63941,34.16872 10.020691,34.010802 c -0.3402948,-0.08686 -0.6777893,-0.214741 -0.7499875,-0.284188 -0.072198,-0.06945 0.1492675,-1.077479 0.4921459,-2.240065 0.3428786,-1.162588 0.6725066,-2.577795 0.7325076,-3.144907 0.102609,-0.969839 0.152096,-1.058259 0.832776,-1.487954 1.301526,-0.821617 2.908239,-1.485509 4.081539,-1.686486 l 1.151757,-0.197288 0,-3.94157 0,-3.94157 6.647897,0 6.647897,0 6.367472,-4.514987 c 3.502109,-2.483242 6.397584,-4.4848737 6.434389,-4.4480693 0.03681,0.036804 0.04667,8.4599083 0.02191,18.7180083 l -0.045,18.65109 -6.275573,-4.469314 -6.275573,-4.469313 -1.994787,-0.01099 -1.994789,-0.01099 -1.072699,1.146719 c -0.589985,0.630695 -2.317464,2.216308 -3.838843,3.52358 -2.893496,2.486292 -3.438041,3.063508 -4.083258,4.328238 -0.304815,0.597486 -0.376107,0.987642 -0.32201,1.762248 0.03821,0.547177 0.133015,1.13451 0.210672,1.305188 0.112325,0.246876 0.01191,0.364341 -0.491131,0.574524 -0.831604,0.347467 -0.908317,0.337845 -1.230834,-0.154377 l 0,0 z m 4.929078,-13.45429 c 0.06342,-0.33804 0.08691,-1.238788 0.0522,-2.001664 -0.05236,-1.151021 -0.145148,-1.511029 -0.545276,-2.115651 -0.45775,-0.69169 -1.522304,-1.454987 -2.390444,-1.713974 -0.358985,-0.107093 -0.397748,-0.05874 -0.397748,0.496205 0,0.552588 0.07949,0.653342 0.78487,0.994809 1.103909,0.534394 1.588034,1.548532 1.462368,3.063349 -0.05001,0.602827 -0.147851,1.275034 -0.217427,1.493795 -0.115084,0.361845 -0.06952,0.397748 0.504824,0.397748 0.580752,0 0.640562,-0.04923 0.746628,-0.614617 z m 7.468737,-0.136684 c 0.333109,-1.350091 0.431777,-3.524784 0.213992,-4.716498 -0.736097,-4.027885 -4.141368,-6.485719 -9.68236,-6.988469 l -1.281632,-0.116286 0,0.61434 0,0.61434 1.37002,0.117631 c 3.025164,0.259742 5.13719,1.091485 6.666293,2.62527 1.920028,1.925908 2.465098,4.547929 1.583348,7.616592 -0.137773,0.479477 -0.250496,0.897112 -0.250496,0.928078 0,0.03097 0.26898,0.0563 0.597734,0.0563 0.556284,0 0.610585,-0.05209 0.783101,-0.751301 l 0,0 z m 2.508253,-8.617864 0,-7.601398 -0.53033,0 -0.530331,0 0,7.601398 0,7.601398 0.530331,0 0.53033,0 0,-7.601398 z"
       id="path4732"
       transform="translate(0,988.3622)" />
    <path
       style="opacity:0;fill-opacity:1;stroke:#ffffff;stroke-width:0.17677669;stroke-opacity:1"
       d="m 35.918477,39.525344 -5.656854,-4.043949 -1.300795,-0.0049 c -1.258416,-0.0048 -1.297681,-0.01789 -1.205217,-0.402676 0.05257,-0.218762 0.148571,-1.034144 0.213342,-1.811962 0.313184,-3.760964 -1.265287,-6.5923 -4.58823,-8.230001 -1.431719,-0.705618 -3.338816,-1.218745 -4.550933,-1.224482 -1.243688,-0.0059 -1.207701,0.08432 -1.207701,-3.027187 l 0,-2.809514 6.362425,0 6.362424,0 5.525809,-3.915182 c 3.039194,-2.153351 5.625245,-3.99273 5.746779,-4.0875098 0.176437,-0.1375969 0.220971,3.2343808 0.220971,16.7314928 0,9.297101 -0.05966,16.896173 -0.132583,16.886828 -0.07292,-0.0094 -2.678167,-1.836771 -5.789437,-4.060944 z m -5.745242,-12.71585 0,-7.601398 -0.53033,0 -0.530331,0 0,7.601398 0,7.601398 0.530331,0 0.53033,0 0,-7.601398 z"
       id="path4734"
       transform="translate(0,988.3622)" />
    <path
       style="opacity:0;fill-opacity:1;stroke:#ffffff;stroke-width:0.17699999999999999;stroke-opacity:1;stroke-miterlimit:4;stroke-dasharray:none;fill:#ffffff"
       d="m 35.918477,39.525344 -5.656854,-4.043949 -1.300795,-0.0049 c -1.258416,-0.0048 -1.297681,-0.01789 -1.205217,-0.402676 0.05257,-0.218762 0.148571,-1.034144 0.213342,-1.811962 0.313184,-3.760964 -1.265287,-6.5923 -4.58823,-8.230001 -1.431719,-0.705618 -3.338816,-1.218745 -4.550933,-1.224482 -1.243688,-0.0059 -1.207701,0.08432 -1.207701,-3.027187 l 0,-2.809514 6.362425,0 6.362424,0 5.525809,-3.915182 c 3.039194,-2.153351 5.625245,-3.99273 5.746779,-4.0875098 0.176437,-0.1375969 0.220971,3.2343808 0.220971,16.7314928 0,9.297101 -0.05966,16.896173 -0.132583,16.886828 -0.07292,-0.0094 -2.678167,-1.836771 -5.789437,-4.060944 z m -5.745242,-12.71585 0,-7.601398 -0.53033,0 -0.530331,0 0,7.601398 0,7.601398 0.530331,0 0.53033,0 0,-7.601398 z"
       id="path4736"
       transform="translate(0,988.3622)" />
    <path
       style="opacity:0;fill:#ffffff;fill-opacity:1;stroke:#ffffff;stroke-width:0.03128948;stroke-miterlimit:4;stroke-opacity:1;stroke-dasharray:none"
       d="m 35.918477,39.525344 -5.656854,-4.043949 -1.300795,-0.0049 c -1.258416,-0.0048 -1.297681,-0.01789 -1.205217,-0.402676 0.05257,-0.218762 0.148571,-1.034144 0.213342,-1.811962 0.313184,-3.760964 -1.265287,-6.5923 -4.58823,-8.230001 -1.431719,-0.705618 -3.338816,-1.218745 -4.550933,-1.224482 -1.243688,-0.0059 -1.207701,0.08432 -1.207701,-3.027187 l 0,-2.809514 6.362425,0 6.362424,0 5.525809,-3.915182 c 3.039194,-2.153351 5.625245,-3.99273 5.746779,-4.0875098 0.176437,-0.1375969 0.220971,3.2343808 0.220971,16.7314928 0,9.297101 -0.05966,16.896173 -0.132583,16.886828 -0.07292,-0.0094 -2.678167,-1.836771 -5.789437,-4.060944 z m -5.745242,-12.71585 0,-7.601398 -0.53033,0 -0.530331,0 0,7.601398 0,7.601398 0.530331,0 0.53033,0 0,-7.601398 z"
       id="path4738"
       transform="translate(0,988.3622)" />
    <path
       style="opacity:0;fill:#ffffff;fill-opacity:1;stroke:#ffffff;stroke-width:0.03128948;stroke-miterlimit:4;stroke-opacity:1;stroke-dasharray:none"
       d="m 35.918477,39.525344 -5.656854,-4.043949 -1.300795,-0.0049 c -1.258416,-0.0048 -1.297681,-0.01789 -1.205217,-0.402676 0.05257,-0.218762 0.148571,-1.034144 0.213342,-1.811962 0.313184,-3.760964 -1.265287,-6.5923 -4.58823,-8.230001 -1.431719,-0.705618 -3.338816,-1.218745 -4.550933,-1.224482 -1.243688,-0.0059 -1.207701,0.08432 -1.207701,-3.027187 l 0,-2.809514 6.362425,0 6.362424,0 5.525809,-3.915182 c 3.039194,-2.153351 5.625245,-3.99273 5.746779,-4.0875098 0.176437,-0.1375969 0.220971,3.2343808 0.220971,16.7314928 0,9.297101 -0.05966,16.896173 -0.132583,16.886828 -0.07292,-0.0094 -2.678167,-1.836771 -5.789437,-4.060944 z m -5.745242,-12.71585 0,-7.601398 -0.53033,0 -0.530331,0 0,7.601398 0,7.601398 0.530331,0 0.53033,0 0,-7.601398 z"
       id="path4740"
       transform="translate(0,988.3622)" />
    <path
       style="opacity:0;fill:#ffffff;fill-opacity:1;stroke:#ffffff;stroke-width:0.03128948;stroke-miterlimit:4;stroke-opacity:1;stroke-dasharray:none"
       d="m 35.918477,39.525344 -5.656854,-4.043949 -1.300795,-0.0049 c -1.258416,-0.0048 -1.297681,-0.01789 -1.205217,-0.402676 0.05257,-0.218762 0.148571,-1.034144 0.213342,-1.811962 0.313184,-3.760964 -1.265287,-6.5923 -4.58823,-8.230001 -1.431719,-0.705618 -3.338816,-1.218745 -4.550933,-1.224482 -1.243688,-0.0059 -1.207701,0.08432 -1.207701,-3.027187 l 0,-2.809514 6.362425,0 6.362424,0 5.525809,-3.915182 c 3.039194,-2.153351 5.625245,-3.99273 5.746779,-4.0875098 0.176437,-0.1375969 0.220971,3.2343808 0.220971,16.7314928 0,9.297101 -0.05966,16.896173 -0.132583,16.886828 -0.07292,-0.0094 -2.678167,-1.836771 -5.789437,-4.060944 z m -5.745242,-12.71585 0,-7.601398 -0.53033,0 -0.530331,0 0,7.601398 0,7.601398 0.530331,0 0.53033,0 0,-7.601398 z"
       id="path4742"
       transform="translate(0,988.3622)" />
    <path
       style="opacity:0;fill:#ffffff;fill-opacity:1;stroke:#ffffff;stroke-width:0.03128948;stroke-miterlimit:4;stroke-opacity:1;stroke-dasharray:none"
       d="m 35.918477,39.525344 -5.656854,-4.043949 -1.300795,-0.0049 c -1.258416,-0.0048 -1.297681,-0.01789 -1.205217,-0.402676 0.05257,-0.218762 0.148571,-1.034144 0.213342,-1.811962 0.313184,-3.760964 -1.265287,-6.5923 -4.58823,-8.230001 -1.431719,-0.705618 -3.338816,-1.218745 -4.550933,-1.224482 -1.243688,-0.0059 -1.207701,0.08432 -1.207701,-3.027187 l 0,-2.809514 6.362425,0 6.362424,0 5.525809,-3.915182 c 3.039194,-2.153351 5.625245,-3.99273 5.746779,-4.0875098 0.176437,-0.1375969 0.220971,3.2343808 0.220971,16.7314928 0,9.297101 -0.05966,16.896173 -0.132583,16.886828 -0.07292,-0.0094 -2.678167,-1.836771 -5.789437,-4.060944 z m -5.745242,-12.71585 0,-7.601398 -0.53033,0 -0.530331,0 0,7.601398 0,7.601398 0.530331,0 0.53033,0 0,-7.601398 z"
       id="path4744"
       transform="translate(0,988.3622)" />
    <path
       style="opacity:0;fill:#ffffff;fill-opacity:1;stroke:#ffffff;stroke-width:0.03128948;stroke-miterlimit:4;stroke-opacity:1;stroke-dasharray:none"
       d="m 35.918477,39.525344 -5.656854,-4.043949 -1.300795,-0.0049 c -1.258416,-0.0048 -1.297681,-0.01789 -1.205217,-0.402676 0.05257,-0.218762 0.148571,-1.034144 0.213342,-1.811962 0.313184,-3.760964 -1.265287,-6.5923 -4.58823,-8.230001 -1.431719,-0.705618 -3.338816,-1.218745 -4.550933,-1.224482 -1.243688,-0.0059 -1.207701,0.08432 -1.207701,-3.027187 l 0,-2.809514 6.362425,0 6.362424,0 5.525809,-3.915182 c 3.039194,-2.153351 5.625245,-3.99273 5.746779,-4.0875098 0.176437,-0.1375969 0.220971,3.2343808 0.220971,16.7314928 0,9.297101 -0.05966,16.896173 -0.132583,16.886828 -0.07292,-0.0094 -2.678167,-1.836771 -5.789437,-4.060944 z m -5.745242,-12.71585 0,-7.601398 -0.53033,0 -0.530331,0 0,7.601398 0,7.601398 0.530331,0 0.53033,0 0,-7.601398 z"
       id="path4746"
       transform="translate(0,988.3622)" />
  </g>
</svg>
